<svg width="15" height="7" viewBox="0 0 15 7" fill="none" xmlns="http://www.w3.org/2000/svg">
<path d="M6.99979 7C6.76614 7.00046 6.5397 6.91908 6.35979 6.77L0.359788 1.77C0.155571 1.60026 0.0271464 1.35635 0.00276666 1.09192C-0.0216131 0.827498 0.0600488 0.564217 0.229787 0.360001C0.399526 0.155784 0.643437 0.02736 0.907864 0.0029803C1.17229 -0.0213994 1.43557 0.060262 1.63979 0.230001L6.99979 4.71L12.3598 0.390001C12.4621 0.306935 12.5798 0.244904 12.7061 0.207472C12.8324 0.17004 12.9649 0.157946 13.096 0.171886C13.227 0.185825 13.354 0.225522 13.4696 0.288695C13.5853 0.351869 13.6873 0.437274 13.7698 0.540001C13.8614 0.642822 13.9307 0.763449 13.9735 0.894322C14.0163 1.0252 14.0316 1.1635 14.0185 1.30056C14.0053 1.43762 13.964 1.5705 13.8971 1.69085C13.8303 1.81121 13.7392 1.91646 13.6298 2L7.62979 6.83C7.4447 6.95552 7.22289 7.01537 6.99979 7Z" fill="#CCCCCC"/>
</svg>
