<svg width="32" height="32" viewBox="0 0 32 32" fill="none" xmlns="http://www.w3.org/2000/svg">
<path d="M19.3332 28V21.3333C19.3332 20.5969 18.7362 20 17.9998 20H13.9998C13.2635 20 12.6665 20.5969 12.6665 21.3333V28" stroke="#FA5A0A" stroke-width="2" stroke-linecap="round" stroke-linejoin="round"/>
<path d="M6.6665 14.6667V22.6667C6.6665 25.1808 6.6665 26.4379 7.44756 27.2189C8.2286 28 9.48568 28 11.9998 28H19.9998C22.514 28 23.771 28 24.5521 27.2189C25.3332 26.4379 25.3332 25.1808 25.3332 22.6667V14.6667" stroke="#FA5A0A" stroke-width="2"/>
<path d="M6.1617 6.01991C6.40422 5.04983 6.52547 4.56479 6.88715 4.28239C7.24884 4 7.7488 4 8.74874 4H23.2512C24.2512 4 24.7512 4 25.1128 4.28239C25.4745 4.56479 25.5957 5.04983 25.8383 6.01991L27.4431 12.4392C27.5723 12.9557 27.6368 13.2139 27.6225 13.4237C27.5856 13.9676 27.2213 14.4343 26.7025 14.602C26.5025 14.6667 26.2301 14.6667 25.6855 14.6667C24.9745 14.6667 24.6192 14.6667 24.3207 14.5971C23.4844 14.4023 22.7931 13.8167 22.4633 13.0237C22.3457 12.7407 22.2885 12.3981 22.1744 11.7128C22.1424 11.521 22.1264 11.4251 22.1083 11.3999C22.0551 11.3259 21.9449 11.3259 21.8917 11.3999C21.8736 11.4251 21.8576 11.521 21.8256 11.7128L21.7169 12.3651C21.7055 12.4342 21.6996 12.4688 21.6939 12.4991C21.4585 13.734 20.3928 14.6369 19.136 14.666C19.1052 14.6667 19.0701 14.6667 19 14.6667C18.9299 14.6667 18.8948 14.6667 18.864 14.666C17.6072 14.6369 16.5415 13.734 16.3061 12.4991C16.3004 12.4688 16.2945 12.4342 16.2831 12.3651L16.1744 11.7128C16.1424 11.521 16.1264 11.4251 16.1083 11.3999C16.0551 11.3259 15.9449 11.3259 15.8917 11.3999C15.8736 11.4251 15.8576 11.521 15.8256 11.7128L15.7169 12.3651C15.7055 12.4342 15.6996 12.4688 15.6939 12.4991C15.4585 13.734 14.3928 14.6369 13.136 14.666C13.1052 14.6667 13.0701 14.6667 13 14.6667C12.9299 14.6667 12.8948 14.6667 12.864 14.666C11.6072 14.6369 10.5414 13.734 10.3061 12.4991C10.3004 12.4688 10.2946 12.4342 10.2831 12.3651L10.1743 11.7128C10.1424 11.521 10.1264 11.4251 10.1083 11.3999C10.0551 11.3259 9.94491 11.3259 9.89171 11.3999C9.87359 11.4251 9.85761 11.521 9.82565 11.7128C9.71143 12.3981 9.65432 12.7407 9.53666 13.0237C9.20699 13.8167 8.51567 14.4023 7.67935 14.5971C7.38084 14.6667 7.0254 14.6667 6.31455 14.6667C5.76983 14.6667 5.49746 14.6667 5.29742 14.602C4.77871 14.4343 4.41438 13.9676 4.37743 13.4237C4.36319 13.2139 4.42775 12.9557 4.55687 12.4392L6.1617 6.01991Z" stroke="#FA5A0A" stroke-width="2"/>
</svg>
