<svg width="18" height="18" viewBox="0 0 18 18" fill="none" xmlns="http://www.w3.org/2000/svg">
<path d="M1 1H2.62563C3.193 1 3.47669 1 3.70214 1.12433C3.79511 1.17561 3.87933 1.24136 3.95162 1.31912C4.12692 1.50769 4.19573 1.7829 4.33333 2.33333L4.51493 3.05972C4.616 3.46402 4.66654 3.66617 4.74455 3.83576C5.01534 4.42449 5.5546 4.84553 6.19144 4.96546C6.37488 5 6.58326 5 7 5" stroke="white" stroke-width="2" stroke-linecap="round"/>
<path d="M15.0001 14H4.55097C4.40477 14 4.33168 14 4.27622 13.9938C3.68863 13.928 3.28611 13.3695 3.40951 12.7913C3.42115 12.7367 3.44427 12.6674 3.4905 12.5287C3.54183 12.3747 3.56749 12.2977 3.59585 12.2298C3.88613 11.5342 4.54283 11.0608 5.29454 11.0054C5.36796 11 5.44912 11 5.61143 11H11.0001" stroke="white" stroke-width="2" stroke-linecap="round" stroke-linejoin="round"/>
<path d="M11.5279 11H7.97425C6.75833 11 6.15037 11 5.68142 10.7246C5.48338 10.6083 5.30684 10.4588 5.15956 10.2825C4.81082 9.8652 4.71087 9.2655 4.51098 8.0662C4.30844 6.85093 4.20717 6.2433 4.44758 5.79324C4.54794 5.60536 4.68717 5.44101 4.85599 5.31113C5.2604 5 5.87641 5 7.10845 5H13.7639C15.2143 5 15.9395 5 16.2326 5.47427C16.5257 5.94854 16.2014 6.59717 15.5528 7.8944L15.1056 8.7889C14.5677 9.8647 14.2987 10.4026 13.8154 10.7013C13.3321 11 12.7307 11 11.5279 11Z" stroke="white" stroke-width="2" stroke-linecap="round"/>
<path d="M14 18C14.5523 18 15 17.5523 15 17C15 16.4477 14.5523 16 14 16C13.4477 16 13 16.4477 13 17C13 17.5523 13.4477 18 14 18Z" fill="white"/>
<path d="M6 18C6.55228 18 7 17.5523 7 17C7 16.4477 6.55228 16 6 16C5.44772 16 5 16.4477 5 17C5 17.5523 5.44772 18 6 18Z" fill="white"/>
</svg>
