<svg width="20" height="9" viewBox="0 0 20 9" fill="none" xmlns="http://www.w3.org/2000/svg">
<path fill-rule="evenodd" clip-rule="evenodd" d="M8.01875 5.49058V2.27977C9.84779 2.81612 11.2644 3.33425 12.9398 3.89286C11.5579 4.37044 9.84779 4.9063 8.01875 5.49058ZM18.212 0.682879C17.8965 0.423831 17.3588 0.222184 16.7863 0.155425C15.1036 -0.0437126 4.60576 -0.044279 2.92395 0.155425C2.46486 0.209059 2.05606 0.338699 1.70488 0.54012C0.225188 1.396 0.688854 5.98583 1.04552 6.72932C1.1955 7.05113 1.38939 7.28322 1.63356 7.43557C1.94816 7.63698 2.37889 7.77567 2.87365 7.83786C4.25915 8.01646 11.397 8.11631 16.757 7.86468C17.2508 7.81105 17.688 7.6679 18.0327 7.45792C19.4009 6.60545 19.3076 1.75787 18.212 0.682879Z" fill="#05141F"/>
</svg>
